<svg width="67" height="100" viewBox="0 0 67 100" xmlns="http://www.w3.org/2000/svg"><title>address</title><path d="M50.002 33.335c0 9.18-7.487 16.667-16.667 16.667-9.18 0-16.668-7.487-16.668-16.667 0-9.18 7.488-16.668 16.668-16.668s16.667 7.488 16.667 16.668zm16.668 0C66.67 14.91 51.76 0 33.335 0S0 14.91 0 33.335c0 3.972.456 8.073 2.15 11.654L25.912 95.38c1.302 2.865 4.297 4.623 7.422 4.623s6.12-1.758 7.487-4.623l23.7-50.393c1.692-3.582 2.148-7.683 2.148-11.655z" fill="#000" fill-rule="evenodd"/></svg>