<svg width="128" height="100" viewBox="0 0 128 100" xmlns="http://www.w3.org/2000/svg"><title>email</title><path d="M127.273 32.244c-2.13 2.344-4.546 4.404-7.103 6.18-11.86 8.025-23.792 16.12-35.37 24.502-5.965 4.404-13.35 9.8-21.093 9.8H63.565c-7.74 0-15.127-5.396-21.093-9.8-11.577-8.452-23.51-16.477-35.3-24.503A39.718 39.718 0 0 1 0 32.243v56.393C0 94.886 5.114 100 11.364 100H115.91c6.25 0 11.363-5.114 11.363-11.364V32.244zm0-20.88C127.273 5.114 122.088 0 115.91 0H11.363C3.764 0 0 5.966 0 12.926c0 6.463 7.173 14.49 12.216 17.898 11.008 7.67 22.16 15.34 33.168 23.082 4.616 3.196 12.428 9.73 18.18 9.73H63.707c5.754 0 13.567-6.534 18.183-9.73 11.008-7.74 22.158-15.412 33.238-23.082 6.25-4.333 12.145-11.506 12.145-19.46z" fill="#000" fill-rule="evenodd"/></svg>