<svg width="100" height="100" viewBox="0 0 100 100" xmlns="http://www.w3.org/2000/svg"><title>fax</title><path d="M16.07 21.43H8.93C4.017 21.43 0 25.445 0 30.356V91.07C0 95.983 4.018 100 8.93 100h7.14c4.912 0 8.93-4.018 8.93-8.93V30.358c0-4.91-4.018-8.928-8.93-8.928zm76.787 9.095V21.43c0-2.96-1.73-7.088-3.794-9.153L80.58 3.795C78.516 1.73 74.386 0 71.43 0h-37.5a5.36 5.36 0 0 0-5.36 5.357V91.07c0 4.912 4.02 8.93 8.93 8.93h48.214C93.584 100 100 93.583 100 85.714V42.857c0-5.245-2.902-9.877-7.143-12.332zm-41.07 55.19c0 1.004-.783 1.785-1.787 1.785h-7.143a1.763 1.763 0 0 1-1.786-1.786V78.57c0-1.003.783-1.784 1.787-1.784H50c1.004 0 1.786.78 1.786 1.785v7.144zm0-14.286c0 1.003-.783 1.784-1.787 1.784h-7.143a1.763 1.763 0 0 1-1.786-1.785v-7.144c0-1.005.783-1.786 1.787-1.786H50c1.004 0 1.786.78 1.786 1.786v7.143zm0-14.287c0 1.004-.783 1.786-1.787 1.786h-7.143a1.763 1.763 0 0 1-1.786-1.787V50c0-1.004.783-1.786 1.787-1.786H50c1.004 0 1.786.782 1.786 1.786v7.143zm14.284 28.57c0 1.006-.78 1.787-1.784 1.787h-7.143a1.763 1.763 0 0 1-1.786-1.786V78.57c0-1.003.78-1.784 1.786-1.784h7.143c1.004 0 1.785.78 1.785 1.785v7.144zm0-14.284c0 1.003-.78 1.784-1.784 1.784h-7.143a1.763 1.763 0 0 1-1.786-1.785v-7.144c0-1.005.78-1.786 1.786-1.786h7.143c1.004 0 1.785.78 1.785 1.786v7.143zm0-14.287c0 1.004-.78 1.786-1.784 1.786h-7.143a1.763 1.763 0 0 1-1.786-1.787V50c0-1.004.78-1.786 1.786-1.786h7.143c1.004 0 1.785.782 1.785 1.786v7.143zm14.287 28.57c0 1.006-.78 1.787-1.786 1.787h-7.14a1.763 1.763 0 0 1-1.787-1.786V78.57c0-1.003.78-1.784 1.786-1.784h7.14c1.006 0 1.787.78 1.787 1.785v7.144zm0-14.284c0 1.003-.78 1.784-1.786 1.784h-7.14a1.763 1.763 0 0 1-1.787-1.785v-7.144c0-1.005.78-1.786 1.786-1.786h7.14c1.006 0 1.787.78 1.787 1.786v7.143zm0-14.287c0 1.004-.78 1.786-1.786 1.786h-7.14a1.763 1.763 0 0 1-1.787-1.787V50c0-1.004.78-1.786 1.786-1.786h7.14c1.006 0 1.787.782 1.787 1.786v7.143zm5.357-21.43h-50V7.144H71.43v8.928a5.36 5.36 0 0 0 5.356 5.36h8.928v14.284z" fill="#000" fill-rule="evenodd"/></svg>