<svg width="100" height="100" viewBox="0 0 100 100" xmlns="http://www.w3.org/2000/svg"><title>phone</title><path d="M100 78.977c0-.497 0-.994-.213-1.49-.497-1.493-3.977-3.055-5.398-3.765-4.05-2.273-8.168-4.475-12.146-6.82-1.846-1.135-4.12-3.266-6.32-3.266-4.333 0-10.654 12.855-14.49 12.855-1.917 0-4.403-1.774-6.107-2.768C42.4 66.548 33.452 57.6 26.277 44.672c-.993-1.703-2.768-4.19-2.768-6.107 0-3.835 12.854-10.156 12.854-14.488 0-2.202-2.13-4.475-3.267-6.32-2.344-3.98-4.546-8.098-6.82-12.146-.71-1.42-2.27-4.9-3.763-5.397C22.017 0 21.52 0 21.024 0c-2.558 0-7.53 1.136-9.873 2.202C7.67 3.692 5.4 7.67 3.623 10.866 1.35 15.056 0 19.318 0 24.076c0 6.606 2.7 12.572 4.9 18.61 1.563 4.33 3.48 8.52 5.895 12.428 7.458 12.074 22.018 26.633 34.09 34.09 3.908 2.415 8.098 4.333 12.43 5.895 6.037 2.2 12.003 4.9 18.608 4.9 4.76 0 9.02-1.35 13.21-3.622 3.197-1.776 7.174-4.048 8.665-7.53 1.066-2.342 2.202-7.314 2.202-9.87z" fill="#000" fill-rule="evenodd"/></svg>