<?xml version="1.0" encoding="UTF-8" standalone="no"?>
<svg width="258px" height="260px" viewBox="0 0 258 260" version="1.1" xmlns="http://www.w3.org/2000/svg" xmlns:xlink="http://www.w3.org/1999/xlink">
    <!-- Generator: Sketch 39.1 (31720) - http://www.bohemiancoding.com/sketch -->
    <title>vector-icon-white</title>
    <desc>Created with Sketch.</desc>
    <defs></defs>
    <g id="Logo" stroke="none" stroke-width="1" fill="none" fill-rule="evenodd">
        <g id="vector-icon-white" fill="#FFFFFF">
            <path d="M140.400358,11.8716453 C147.383489,14.8446242 155.557271,18.3493733 155.557271,18.3493733 C155.557271,18.3493733 157.436416,20.8721162 159.353221,22.2458919 C161.270027,23.6196676 163.271262,24.2326652 165.697498,25.8887982 C168.229593,27.6171895 169.959402,29.5207483 169.959402,29.5207483 C169.959402,29.5207483 166.054561,29.4914397 165.697498,30.5995642 C165.332049,31.7337126 166.962693,35.8284252 166.962693,35.8284252 C166.962693,35.8284252 162.696962,32.0914204 161.503235,33.133507 C160.309507,34.1755937 160.785715,35.4038342 160.785715,35.8284252 C160.785715,36.8735518 166.212995,39.6244334 166.212995,39.6244334 C166.212995,39.6244334 161.503235,39.152121 161.503235,41.4028358 C161.503235,42.6321514 168.251269,45.8083947 168.251269,45.8083947 C168.251269,45.8083947 162.27811,43.9825232 160.785715,43.5072946 C159.784229,43.1069043 156.52432,42.1473038 154.908805,42.1955051 C148.386485,41.959349 149.737944,48.5771688 149.737944,48.5771688 C149.737944,48.5771688 142.012599,43.5623079 135.887615,42.1955073 C134.778121,41.9479217 132.821628,41.209859 130.865996,40.3482942 C129.485928,39.7402974 127.802807,38.7482616 126.433661,39.2377322 C124.315165,39.9950958 123.404185,41.5764442 123.404185,41.5764442 C123.404185,41.5764442 122.140136,39.8064978 120.631874,39.9706727 C118.921355,40.1568633 116.63246,41.6503738 116.034891,41.8331713 C115.437322,42.0159687 110.596429,41.8331713 110.596429,41.8331713 C110.596429,41.8331713 111.018745,40.9981168 111.566635,40.6250688 C112.13265,40.2396796 112.603987,40.0398369 112.449615,39.6244332 C112.288926,39.1920338 110.274446,37.8700888 108.162374,38.169882 C106.050302,38.4696752 103.137569,38.3739949 97.4665623,38.7945231 C91.7955558,39.2150514 80.9887116,41.756891 80.5996797,41.8331713 C78.6109292,42.2231198 74.4963507,43.7488763 73.7327864,43.5072968 C72.9692221,43.2657172 72.8716959,42.2863827 72.8716959,41.8331713 C72.8716959,41.3799598 74.3776207,41.2973561 75.2208296,40.8869196 C76.3484614,40.3380386 77.9057645,39.8951948 78.4805572,39.2377322 C79.362713,38.2286999 77.5411143,37.0051764 76.8365522,36.902034 C74.7346934,36.5943384 69.5920707,37.6273174 63.8543936,39.4172732 C61.1241289,40.2690209 58.7813489,42.0014972 57.3954105,42.4812353 C50.6572871,44.8136153 45.0836045,48.9223059 43.7965543,54.8623646 C42.9496983,58.7708165 47.7371774,62.6997759 47.7371774,62.6997759 C47.7371774,62.6997759 44.0197472,68.8556187 42.5809003,72.052364 C42.091569,73.1395315 39.5299048,79.1008537 37.3341743,83.3782548 C36.4408041,85.1185879 34.3386123,88.4410739 33.3448736,91.1972789 C31.8844671,95.2478205 32.0382883,99.230145 33.7616037,100.702422 C36.6575551,103.176514 38.6124998,104.978629 39.3853706,105.917268 C39.4433981,105.987741 40.4380111,108.682734 39.3853706,111.535339 C38.2369287,114.647561 35.4200456,117.014156 33.7616037,121.394821 C33.4043161,122.338573 31.1228257,126.701813 29.2482941,129.935139 C27.4840271,132.978273 25.486154,135.632746 26.3938362,137.918007 C27.616297,140.995784 37.5284543,140.621082 37.5284543,140.621082 C37.5284543,140.621082 37.5486311,146.232664 37.5284543,146.659763 C37.4957426,147.352199 36.9645973,147.578397 37.0929753,148.193322 C37.2369617,148.883011 38.8456648,148.549971 39.7718967,148.743712 C40.7506649,148.948443 41.0455699,149.677431 41.0464834,150.368023 C41.0477512,151.326528 39.7984399,151.477404 39.3853706,152.237159 C38.9672838,153.006142 39.3853706,154.380103 39.3853706,154.697141 C39.3853706,155.198247 39.3341073,156.611351 40.0474771,157.883289 C40.8449959,159.305264 42.444611,160.626719 43.0392414,161.832968 C44.1172458,164.019774 43.7965543,164.714229 43.7965543,165.330629 C43.7965543,167.337252 42.4810724,168.973002 41.9606293,170.823381 C41.4725941,172.558538 41.4624438,175.803061 42.1603856,177.559884 C42.8583275,179.316707 45.2166317,180.513523 46.9265204,181.313377 C52.347353,183.849142 62.8927421,180.578445 62.8927421,180.578445 C62.8927421,180.578445 67.1291796,179.406376 71.5607982,177.559884 C75.5435413,175.900421 79.6154759,173.635874 82.0717563,172.21088 C83.0751121,171.62879 82.8525172,170.077881 83.1163265,169.824827 C83.8230395,169.146928 85.5370807,169.771009 86.0950482,169.455655 C86.8131091,169.049818 86.2854341,167.806634 86.2854341,167.806634 C86.2854341,167.806634 87.115521,167.73098 87.7653096,168.215749 C88.1934786,168.535181 88.2679837,168.918909 88.715534,169.244294 C89.0624362,169.496504 89.7620379,169.758565 90.2086233,169.643628 C91.4633002,169.320714 92.3639239,166.370828 93.6512747,165.70728 C94.4965142,165.271612 96.0573126,165.138705 96.9259105,164.024329 C97.7155636,163.011236 98.1119084,161.26096 98.1119084,161.26096 C98.1119084,161.26096 100.211192,160.602432 100.926672,161.478943 C101.220843,161.839322 101.466174,162.957006 100.926672,164.024329 C100.380706,165.104438 99.0488726,166.134961 99.1900902,166.615101 C99.3482232,167.152754 100.470584,167.274852 101.322507,167.022713 C102.204174,166.761771 102.815627,166.114374 102.942003,165.97923 C103.606624,165.268504 103.329057,163.8235 103.820536,162.737535 C104.148802,162.012203 104.958345,161.502008 105.400348,160.911978 C105.979041,160.139478 106.183106,159.343337 106.427973,158.89014 C106.469133,158.813963 109.748676,154.910224 109.748676,154.910224 C109.748676,154.910224 109.729457,157.899817 110.596429,159.21741 C111.073509,159.942457 111.913623,160.276126 112.449615,160.276126 C113.959638,160.276126 115.652471,158.947366 116.613997,156.61836 C117.195879,155.208927 116.613997,153.283176 116.613997,152.022943 C116.613997,148.680249 119.27073,146.877289 119.27073,146.877289 C119.27073,146.877289 119.540212,149.10219 120.631874,149.10219 C121.743312,149.10219 121.700228,147.749117 122.85776,146.382389 C124.151187,144.855205 125.91844,143.096294 127.164757,141.414013 C128.287619,139.898373 129.045307,137.96857 129.909036,136.63344 C130.217841,136.093219 131.280722,133.770401 132.80134,130.827433 C133.767523,128.957504 135.157815,126.967406 135.887615,124.606611 C137.56804,119.170687 137.530244,112.648883 138.249113,112.094654 C138.587024,111.834134 141.974021,111.353417 142.825078,112.343636 C143.676135,113.333856 139.960325,126.034595 141.200194,126.903558 C142.440062,127.772522 142.807806,129.057436 143.163857,128.786652 C143.577555,128.472025 143.384094,127.204761 143.697902,125.87469 C143.94091,124.844701 144.660205,123.75885 145.114306,123.163499 C145.972409,122.038481 147.070042,120.823221 147.794185,119.464316 C149.273282,116.688684 149.462506,112.239849 149.462506,112.239849 C149.462506,112.239849 151.089999,115.747872 151.089999,117.991175 C151.089999,119.074108 150.267892,121.74156 149.18893,124.201054 C148.618121,125.502213 147.60892,126.685754 147.139591,127.779077 C146.658341,128.900171 146.725389,129.922819 146.832339,130.586748 C146.95279,131.334485 148.572403,133.420413 150.176999,133.569366 C151.582959,133.699879 153.046617,131.388147 153.046617,131.388147 C153.046617,131.388147 153.557591,133.378319 153.235714,134.151859 C152.913838,134.925399 152.156795,135.715028 153.046617,136.409234 C153.404034,136.688077 154.061328,137.137664 154.908804,136.753544 C155.756279,136.369424 155.971215,134.236463 156.144877,133.80909 C156.402961,133.173958 156.761576,132.848792 156.924777,132.080421 C157.128079,131.123243 156.71722,129.713709 156.924777,128.786652 C157.22588,127.441766 157.60318,126.353777 157.925397,125.396583 C158.295315,124.297687 159.618015,123.857476 159.747943,123.79467 C160.289868,123.532704 160.954588,124.999502 160.913628,125.396583 C160.791119,126.584243 159.959624,127.662783 159.535774,129.40905 C159.23157,130.662377 159.255379,132.715766 159.353219,133.279594 C159.483616,134.031037 160.858974,133.760619 161.102833,133.80909 C161.524457,133.892895 162.456848,133.697882 163.054469,132.603152 C163.223017,132.294403 163.049948,131.57441 163.169063,130.827433 C163.32228,129.866603 163.760098,128.836831 163.930874,128.323683 C164.767672,125.809274 165.425684,124.835593 165.425684,124.835593 C165.425684,124.835593 164.954021,129.857424 165.267782,133.126844 C165.444259,134.965749 166.05008,135.613155 165.965695,136.931194 C165.879022,138.284958 165.619046,139.970643 165.697496,141.038209 C165.773659,142.074644 165.56074,143.122663 166.614537,143.122663 C167.668333,143.122663 168.805848,141.287533 170.434539,141.649617 C170.907587,141.754784 171.126902,144.354482 171.141293,144.929629 C171.187051,146.758509 170.480063,147.93094 170.233446,149.89181 C170.032763,151.487461 170.339895,153.985933 169.9594,154.697141 C167.44506,159.396852 163.026608,165.918051 161.503233,167.806634 C159.001084,170.908638 157.733917,173.574847 154.908804,176.968275 C153.476418,178.688807 151.48143,180.377394 150.176999,181.987498 C146.890195,186.044511 146.758321,188.079002 144.034083,190.969348 C141.165809,194.012511 138.613806,194.878614 137.5724,195.312281 C132.884811,197.264307 128.232709,196.965994 127.164757,197.31841 C125.559772,197.848042 124.688569,199.123035 123.404185,199.762597 C122.1198,200.40216 120.82976,200.100124 120.82976,200.868345 C120.82976,201.636566 130.112235,200.868345 130.112235,200.868345 C130.112235,200.868345 120.181362,205.270113 109.070723,205.395388 C95.5388751,205.547962 82.5574518,201.865755 80.4205405,201.636566 C79.2977135,201.51614 75.7757366,201.610328 74.7682,201.636566 C73.3089352,201.674568 72.6448727,200.880456 71.5607982,200.40216 C70.570164,199.96509 69.1289908,199.845911 68.4435513,199.762597 C66.5975723,199.538221 63.42705,200.232539 62.1083563,200.40216 C60.5025341,200.608714 60.0338121,198.749696 58.25989,198.923682 C56.6452622,199.082043 55.2714056,199.852193 53.6634412,199.762597 C49.9016638,199.55299 46.6098176,197.701771 43.7965543,196.658238 C40.6651759,195.496706 37.7334348,194.947891 36.5479456,194.584593 C36.2025193,194.478735 27.7096874,191.298563 26.6242455,190.285047 C26.0194773,189.720353 27.4906057,189.146784 27.4662958,188.629347 C27.4492914,188.267409 26.4998716,187.955838 25.9995218,187.480878 C25.2022065,186.724022 23.8598567,186.054408 23.3121627,185.409402 C22.602656,184.573834 22.7900763,183.699169 22.7339598,183.418174 C22.6006501,182.750646 23.4254106,182.461331 24.5922257,183.089858 C25.4429894,183.548138 26.1443371,184.694429 27.0998388,185.409402 C27.9170468,186.020895 29.0082832,186.2249 29.5590791,186.434921 C30.4280722,186.766273 29.6947181,184.5946 29.5590791,184.452903 C28.6317398,183.484146 27.9385617,182.934728 21.9861737,180.578439 C19.3815953,179.547401 15.4172401,175.04603 12.3474017,172.66736 C10.9869786,171.613233 8.91229931,171.487666 7.85955868,170.823381 C5.85888146,169.560944 5.34304492,168.147559 4.94389197,167.320011 C4.336526,166.060784 5.80751881,163.078016 7.85955868,163.404576 C8.65189509,163.530668 9.71478684,163.813366 10.8723457,164.627755 C11.8453349,165.312292 11.8982886,166.739051 12.9128052,167.320011 C13.5833111,167.703975 14.5542418,167.283041 15.2026507,167.54749 C17.2070899,168.364988 18.5209422,168.084895 19.6645192,167.806634 C20.241454,167.666251 20.9535861,167.333371 20.8233707,166.391486 C20.6921584,165.44239 19.3982727,164.241621 19.3466209,163.404576 C19.2664191,162.104863 20.232558,161.832968 20.232558,161.832968 C20.232558,161.832968 22.5011955,164.183335 25.9995218,165.088231 C28.4879523,165.731902 32.4687122,165.838847 32.4250562,165.330629 C32.3488456,164.443428 29.5521226,161.333751 26.3938362,158.636115 C24.8719938,157.336241 22.4667958,156.200508 21.1775948,155.267959 C19.6382646,154.154479 19.3466209,153.362497 19.3466209,153.362497 C19.3466209,153.362497 20.0286318,151.317971 19.6645192,150.634712 C18.7522081,148.922758 15.5173498,146.17686 15.5173498,146.17686 C15.5173498,146.17686 17.4111879,144.843625 17.4111879,144.24527 C17.4111879,142.889961 14.4157752,141.95397 12.7100955,138.819359 C12.5283485,138.485354 11.8912603,137.142168 11.7609174,136.106646 C11.582547,134.689566 11.8823187,134.268196 11.5638551,133.279594 C11.2453915,132.290992 9.29400163,131.045853 8.62051975,129.935139 C7.38648773,127.899959 7.18789885,126.348679 6.24484633,124.98664 C4.90526452,123.051898 3.5688837,122.409108 3.81666102,121.394821 C3.99705245,120.656381 4.86220574,120.300291 5.83001647,120.300291 C6.30899539,120.300291 6.67808871,121.735759 7.14772287,122.774622 C7.62701768,123.834855 8.20844815,124.497814 8.85917835,124.385993 C9.18329439,124.330297 10.6826401,123.66621 10.5540712,122.550825 C10.3849704,121.083811 8.90615938,118.277263 8.1343553,116.282325 C7.16043126,113.764953 6.87401604,112.130063 6.87401604,111.535339 C6.87401604,110.110981 7.74529638,105.967116 7.85955868,103.556229 C7.98047822,101.004877 7.33282242,100.3108 6.87401604,99.5223166 C6.70954682,99.2396673 4.92363866,98.7618348 4.10350376,99.2614981 C2.85999082,100.019103 2.75022444,102.134891 2.75022444,103.556229 C2.75022444,105.914984 1.8851799,106.348305 1.29643761,106.348305 C0.707695322,106.348305 -4.10026479e-09,105.048732 0,103.327875 C4.10026484e-09,101.607018 5.24782182,86.689684 5.42798542,85.1490264 C5.75278763,82.3715009 8.57313962,80.4941763 9.20850929,78.9905836 C10.2168811,76.604287 9.2089923,75.2237149 10.2916971,73.1752 C12.1886799,69.5860429 17.2995323,62.5405053 19.6645197,59.5979379 C20.4108404,58.66935 21.2187879,59.176298 22.9997226,57.6402157 C24.8173687,56.0724692 23.8480183,55.7284831 25.999521,54.056779 C30.2961731,50.7183071 37.3341743,45.9580259 36.1469362,45.2788771 C34.9596982,44.5997284 30.2166714,47.9063428 30.2166714,47.9063428 C30.2166714,47.9063428 32.1071646,45.24186 32.1071646,44.4622164 C32.1071646,44.0092904 32.0928873,42.9169242 30.4952292,44.1820926 C30.2237204,44.3970975 29.2486385,44.6680891 28.4281785,45.2788771 C27.3308495,46.0957793 26.3888734,47.5398806 25.6214975,47.9063428 C24.2803637,48.5468046 24.5136702,46.7061947 26.6242455,43.9504226 C28.7348208,41.1946505 29.3407876,41.5524932 32.1071646,38.9281222 C34.8735416,36.3037511 37.5060498,35.0758277 38.8923746,34.0636001 C41.0537584,32.4854618 42.1603848,30.9816956 42.1603848,30.9816956 C42.1603848,30.9816956 45.5929968,31.1761796 48.7005426,30.3290644 C51.070632,29.6829794 52.9531687,28.2858504 53.6634431,28.1810447 C55.3049945,27.9388229 58.9297023,27.771228 59.4435859,27.5583993 C60.9562873,26.9319028 62.6176754,24.6366375 62.6176754,24.6366375 C62.6176754,24.6366375 64.18851,25.560535 65.6635883,25.888798 C66.6246254,26.1026667 67.5611918,25.8125245 67.9406344,25.7124064 C69.109849,25.4039024 67.9406344,22.8464273 67.9406344,22.8464273 C67.9406344,22.8464273 72.948364,20.6160886 72.3044421,19.2500909 C72.0490298,18.8475574 70.5853029,17.0638475 67.4715998,18.3493733 C65.9237565,18.9884171 65.6167649,19.847334 64.630655,20.6203462 C63.633067,21.402356 61.9632452,22.0956572 61.5947165,22.2458917 C60.0282107,22.8844942 58.8112218,22.819867 57.3954105,23.064308 C56.8216749,23.1633639 54.5440642,23.7999907 52.824844,24.2074984 C50.7032069,24.7103912 48.1065476,25.4997921 48.1065476,25.4997921 C48.1065476,25.4997921 50.9834348,22.7951288 53.6634431,21.3435007 C55.8414635,20.1637746 58.8748421,19.3773389 59.4435859,18.7519068 C60.2318228,17.8851042 55.3049945,17.8227127 55.3049945,17.8227127 C55.3049945,17.8227127 59.8964541,17.2218747 66.8474695,14.0134671 C67.3052382,13.802173 65.5248602,13.6117424 64.630655,12.9459059 C63.7199345,12.2677719 63.1704665,11.2622335 63.1704665,11.2622335 C63.1704665,11.2622335 67.7829669,11.4113871 71.9633917,10.3665409 C75.1163472,9.57849802 78.2905117,7.60819097 79.9285387,7.05514463 C82.3504294,6.23744271 93.1733687,7.13973881 99.1900921,3.93806283 C101.186299,4.00805272 101.494695,5.31880805 102.942005,5.28587217 C104.732759,5.24512067 102.021779,3.27219873 104.912756,3.27219873 C107.803734,3.27219873 109.456265,4.13790595 109.748677,2.94404085 C110.04109,1.75017575 107.984717,1.68551572 105.919032,1.68551572 C103.853347,1.68551572 99.5734832,2.45188758 99.5734832,2.45188758 C99.5734832,2.45188758 100.702596,-6.32519887e-11 105.185926,0 C106.099163,1.28841906e-11 110.927324,0.0842730541 115.662064,1.2851597 C118.381346,1.97485944 120.707312,3.65912353 122.857762,4.55735845 C126.089154,5.90709944 128.570526,6.39933155 128.570526,6.39933155 C128.570526,6.39933155 135.541376,9.80299592 140.400358,11.8716453 Z" id="vector-icon-green"></path>
            <path d="M146.740269,53.2037568 C144.672974,52.9572695 142.594731,52.3374681 141.422292,51.8699032 C139.191756,50.9803729 137.279847,47.4722871 137.279847,47.4722871 C137.279847,47.4722871 135.602337,49.5081737 133.449007,49.4630495 C130.921862,49.4100917 127.600758,47.2685501 123.50613,47.1683642 C122.161512,47.1354646 121.084011,47.5528756 119.715406,47.4722871 C117.484072,47.3408978 114.928709,46.713964 112.523639,46.8099484 C105.720212,47.0814677 99.2617181,48.2826561 94.5895904,49.4630495 C91.5549965,50.2297269 87.030578,52.0642735 83.3196898,54.5823664 C80.2495335,56.6656786 78.463034,58.8125403 75.8919857,60.5407954 C74.7182887,61.3297529 72.1948191,61.2503743 71.252985,61.7703458 C68.4139518,63.3377303 67.6904147,65.0537648 67.6904147,65.0537648 C67.6904147,65.0537648 70.2231287,67.4975346 69.7090363,69.6024993 C69.3877042,70.9182015 66.3215196,71.4994758 65.7797299,72.395858 C65.092273,73.533244 65.3155705,75.1251806 63.9860308,76.5702594 C61.8369282,78.9061223 57.005437,81.4721683 57.005437,81.4721683 C57.005437,81.4721683 59.5155589,81.5504612 61.3492402,81.0283611 C62.3616707,80.7400941 63.8152004,79.4304864 65.0656166,79.2194284 C65.8514383,79.0867893 66.9529463,79.4905814 66.5548606,80.3793173 C66.1567749,81.2680532 64.0001285,81.8347053 63.353765,82.9324231 C62.7074014,84.030141 62.9815592,85.6896393 62.9815592,85.6896393 C62.9815592,85.6896393 65.7807407,83.5009823 68.512465,82.2363767 C70.8328686,81.1621851 73.0661577,80.8979384 73.9007169,81.6923858 C74.5335863,82.2948374 74.6213629,83.6810033 74.219269,84.4226371 C73.4668967,85.8103352 70.7816787,86.7480351 70.7816787,86.7480351 C70.7816787,86.7480351 75.2822346,88.4249476 75.2822339,90.7591454 C75.2822336,91.6010175 74.1418408,93.4039323 69.2899106,94.858643 C68.0017708,95.2448545 64.0748278,96.6365845 62.4662784,98.5495398 C62.036878,99.0602009 61.7134899,101.02741 63.7634226,100.502494 C64.1249907,100.409908 65.0505694,99.547216 66.5548604,98.9163828 C67.8159707,98.3875288 69.3379117,98.4069858 70.7816785,97.934521 C73.2614893,97.1230165 74.4791195,95.8529951 75.5494474,96.880303 C76.6197753,97.9076108 69.1198363,102.323509 67.6904147,103.124491 C65.8328952,104.165359 61.0963339,106.552849 61.0963339,106.552849 C61.0963339,106.552849 62.3677659,107.639497 61.7029303,108.630687 C60.9487455,109.755086 57.005437,111.087915 56.6166093,111.648571 C56.2277815,112.209228 56.4924705,114.95494 57.3496589,114.73087 C58.2068473,114.506801 60.0539864,112.407958 62.4662783,110.885675 C63.7903111,110.05014 65.9717847,109.511051 67.4330897,108.630687 C72.6363951,105.495952 77.8628991,101.647717 79.1275867,101.928089 C81.4504554,102.443052 82.3659254,105.207761 82.3659254,105.207761 C82.3659254,105.207761 83.3085795,102.908442 85.2783458,101.928089 C86.5894631,101.275546 88.6087681,102.066393 90.1841401,101.373235 C92.2391729,100.469028 93.6176775,98.9586558 95.4108002,98.3199569 C97.8813893,97.4399489 100.482013,97.6196256 100.777801,97.934521 C101.116673,98.2952839 101.089008,99.2503741 99.9395498,99.8435069 C99.2848489,100.18134 98.1681226,100.057922 97.5464068,100.502494 C96.2888889,101.401709 95.7760618,102.907085 95.7760618,102.907085 C95.7760618,102.907085 97.8010811,103.195493 100.777801,102.671509 C101.998536,102.456626 103.25161,101.787463 104.691747,101.373235 C106.689277,100.798685 108.928034,100.733293 110.878548,100.151924 C111.634214,99.9266907 112.912106,100.310344 114.732286,98.3199569 C116.552465,96.3295703 119.607954,94.8919359 121.083741,95.3709876 C123.279353,96.0836996 117.363637,99.2991266 117.363637,99.2991266 C117.363637,99.2991266 119.884782,99.4428268 120.687953,99.2991266 C121.169557,99.2129599 123.09397,97.332438 128.756186,95.7243497 C131.63176,94.9076768 135.532013,93.7343785 138.773682,93.084558 C143.719856,92.0930543 148.118051,91.1188144 153.37004,91.1188144 C158.622028,91.1188144 168.660256,93.1216932 172.473413,93.9947764 C175.651115,94.7223622 183.126191,96.9942914 188.12391,100.502492 C190.83949,102.408721 193.560704,104.316125 194.91253,106.13129 C196.224014,107.892286 195.986057,109.047186 195.99471,109.921201 C196.015174,111.988269 194.91253,114.315048 194.91253,114.315048 C194.91253,114.315048 197.4488,113.969484 198.554149,115.030811 C200.15573,116.568607 200.896776,119.516612 202.404539,122.770612 C203.934187,126.071845 204.542021,129.098185 205.356953,131.869432 C206.584006,136.04213 207.692037,139.711819 208.43484,143.470845 C208.43558,144.209142 206.94697,145.991615 206.049021,147.855461 C205.171411,149.67709 204.883256,151.586373 204.883256,151.827442 C204.883256,152.201868 207.678326,158.534883 208.751097,160.161435 C209.823868,161.787987 209.577596,162.715708 210.290046,163.945738 C213.326531,169.188161 217.433117,173.93907 217.433117,175.377743 C217.433117,176.904875 214.762185,177.977322 212.941967,179.229564 C211.12175,180.481807 212.01626,181.866728 211.910359,182.971111 C211.819752,183.916001 211.186473,184.337763 211.186473,184.337763 C211.186473,184.337763 211.833073,185.737627 212.701787,187.05194 C213.518194,188.287116 214.56495,189.410266 214.418703,190.331223 C214.384602,190.545964 214.159168,191.199994 213.097495,192.219843 C211.908958,193.361559 209.681339,194.221464 209.681339,195.597622 C209.681339,195.93815 209.545306,197.033081 210.691683,197.606592 C212.464041,198.49327 213.455545,199.18805 213.220021,200.329819 C212.984497,201.471587 208.173715,202.901147 208.324907,206.576583 C208.392319,208.215346 208.360416,211.208948 208.43484,212.76772 C208.470914,213.523255 208.993393,214.360756 208.871081,215.551307 C208.852921,215.728072 208.096092,218.492207 205.686742,220.211271 C203.613251,221.690702 202.244344,221.664841 196.876174,221.910141 C191.508004,222.155442 186.161504,219.954918 179.701862,218.545917 C175.844301,217.704492 171.849826,217.117221 168.3985,216.319793 C163.30673,215.14334 159.826845,213.948465 156.951144,214.003575 C155.051377,214.039982 149.053664,215.551307 149.053664,215.551307 C149.053664,215.551307 148.958929,219.224595 148.580715,219.427652 C148.202501,219.63071 147.001284,219.236827 144.975649,219.314194 C143.474289,219.371537 141.647086,219.792752 139.659786,219.785061 C138.949631,219.782313 137.62144,219.405289 136.253674,219.314194 C134.231142,219.179491 132.157678,219.314194 132.157678,219.314194 C132.157678,219.314194 131.765147,221.010498 131.157048,221.263517 C130.548949,221.516535 122.958124,221.910141 122.958124,221.910141 C122.958124,221.910141 127.336067,225.581889 127.135959,226.774285 C127.092104,227.035603 125.918204,227.40988 124.141507,227.321196 C122.507618,227.239641 120.232765,226.102707 117.647703,225.020282 C115.087436,223.948239 111.728616,223.211121 109.15642,221.910141 C104.263452,219.435349 101.010588,216.319793 101.010588,216.319793 C101.010588,216.319793 100.712322,219.926161 101.277011,220.592139 C101.535186,220.896624 103.994217,222.706684 106.810845,224.400786 C108.214414,225.244984 110.489218,225.746339 111.723859,226.442978 C113.430743,227.406077 114.180332,228.321341 114.130601,228.457965 C114.034237,228.722702 113.27795,229.59155 112.094858,229.374719 C108.995168,228.806622 102.953208,225.838558 102.953208,225.838558 C102.953208,225.838558 103.922176,228.93061 105.871146,230.761427 C107.124023,231.93835 109.311184,231.094977 109.829349,232.434898 C110.055529,233.019777 107.054128,233.302641 106.810845,234.290857 C106.757478,234.507633 108.026925,237.806923 110.878548,238.3299 C113.730171,238.852876 119.715406,238.919928 119.715406,238.919928 C119.715406,238.919928 119.121561,240.500709 118.441016,241.210976 C117.460521,242.234293 114.732286,244.120682 114.732286,244.120682 L132.840342,254.111379 L120.687953,253.089209 C120.687953,253.089209 121.412632,254.796799 123.279353,255.943384 C124.746355,256.844453 127.330407,257.234629 128.035569,257.290131 C130.429838,257.478581 133.736787,257.345106 135.665163,257.290131 C138.564515,257.207475 138.471156,256.609994 140.446915,256.75341 C145.01687,257.085131 145.090396,258.527529 149.72544,259.218865 C154.504156,259.931629 160.673282,259.775894 164.118352,259.994347 C167.011561,260.177806 170.413196,255.835116 170.413196,255.835116 C170.413196,255.835116 166.203318,256.917079 162.276304,257.175038 C157.141024,257.512366 151.680315,257.885274 151.925089,256.96738 C152.169862,256.049485 158.732505,255.37918 162.152711,254.873002 C168.571111,253.923103 173.769597,253.706765 174.598993,253.544392 C176.970069,253.0802 179.428923,252.73497 181.982212,251.649593 C184.29787,250.665231 186.683264,248.97462 189.299565,247.854501 C192.374836,246.537883 196.071613,245.639337 199.261448,244.120682 C201.359358,243.121884 204.209913,241.141691 207.688291,239.043349 C210.778519,237.179159 214.434626,235.271853 217.433117,233.117264 C223.541613,228.727955 228.637301,223.975736 228.637301,223.975736 C228.637301,223.975736 227.859952,217.962949 230.258072,215.020878 C230.784663,214.374844 232.558309,213.381842 233.862984,211.407019 C234.555089,210.359413 235.448858,209.124759 236.114304,207.47404 C236.81728,205.730226 237.297539,203.556777 238.253801,201.986979 C238.867145,200.980115 241.204522,200.439308 241.845149,199.411373 C242.908183,197.70565 243.218591,195.660556 244.214915,193.958266 C244.786912,192.980968 245.924097,192.146974 246.479736,191.207787 C248.131351,188.416087 249.143457,184.423749 250.316112,182.28944 C251.04322,180.966056 253.732109,178.126359 253.732109,178.126359 C253.732109,178.126359 254.027264,172.540848 254.858271,168.912142 C255.202117,167.410692 256.668461,166.158348 257.054802,164.880752 C257.850933,162.248011 257.694263,152.389534 257.285947,149.866903 C257.134534,148.931457 256.772504,146.995667 255.607288,145.59275 C255.01166,144.875617 253.592798,145.311203 252.843927,144.62019 C251.604691,143.476697 251.016809,141.164808 250.316112,139.553359 C249.639795,137.997977 249.035766,136.137315 247.81878,134.663751 C246.536603,133.111251 244.656266,131.958373 244.619552,130.829201 C244.575303,129.468243 249.195312,128.487565 249.195312,128.487565 C249.195312,128.487565 246.866422,125.8221 244.619552,121.291154 C243.555739,119.14591 242.472866,115.29768 241.523754,113.777908 C239.51138,110.555578 236.793012,108.863378 233.862984,104.754777 C229.262732,98.3041234 224.579872,88.6745662 224.579872,88.6745662 C224.579872,88.6745662 223.869795,94.491454 222.849295,94.5392687 C221.429171,94.6058074 218.154332,89.5258502 218.154332,89.5258502 C218.154332,89.5258502 215.633977,91.5228959 214.418703,90.5537188 C213.166154,89.5548151 211.293221,88.396587 210.032286,86.7480331 C208.304572,84.4892099 208.300825,82.355953 206.049021,80.1081646 C200.323803,74.3931559 192.511683,69.0759229 192.511683,69.0759229 C192.511683,69.0759229 189.698765,69.9058822 187.343514,69.6024996 C184.906358,69.2885667 182.872581,67.8284864 179.701862,67.0621288 C177.937892,66.6357802 175.871187,66.5390612 174.337569,65.9074466 C172.941794,65.3326023 172.180959,63.9134052 171.041791,63.4710404 C169.516069,62.8785678 167.154554,63.2541938 165.564531,62.4414845 C163.974509,61.6287752 162.429706,60.3683254 161.091966,59.6091768 C159.432917,58.6676901 157.379051,59.1346332 156.059716,58.2190408 C153.403463,56.3756545 152.160292,53.4065602 152.160292,53.4065602 C152.160292,53.4065602 149.485946,53.5311288 146.740269,53.2037568 Z" id="vector-icon-blue"></path>
        </g>
    </g>
</svg>